<svg width="152" height="533" fill="none" xmlns="http://www.w3.org/2000/svg"><path d="M56.463 0h93.388v15.636H56.853c-14.587 0-25.463 3.323-32.627 9.968C17.063 32.38 13.481 41.045 13.481 51.6c0 10.815 3.647 19.545 10.94 26.19 7.425 6.776 18.235 10.164 32.433 10.164h92.997v15.636H56.463c-17.714 0-31.585-4.495-41.615-13.486C4.95 81.113 0 68.278 0 51.6c0-16.288 4.884-28.993 14.653-38.114C24.422 4.496 38.358 0 56.463 0zM3.517 138.967h105.11v14.854H90.653v.196c5.21 1.563 10.094 5.407 14.653 11.532 4.559 6.124 6.838 13.421 6.838 21.89 0 9.773-3.061 17.787-9.183 24.041-6.121 6.385-16.606 9.577-31.455 9.577H3.516v-15.245h65.45c20.32 0 30.479-7.297 30.479-21.891 0-8.079-3.256-15.05-9.769-20.913-6.512-5.864-14.327-8.796-23.445-8.796H3.517v-15.245zm128.75 113.754H152v19.154h-19.733v-19.154zm-128.75 2.345h105.11v14.854H3.517v-14.854zm105.11 35.768v16.809l-65.84 22.672a1848.876 1848.876 0 0 1-13.677 4.3 3916.81 3916.81 0 0 0-12.503 3.909v.391c2.995.912 7.359 2.346 13.09 4.3 5.73 1.955 10.094 3.388 13.09 4.3l65.84 22.282v16.809l-105.11-38.7v-18.372l105.11-38.7zm23.64 114.535H152v19.155h-19.733v-19.155zm-128.75 2.346h105.11v14.854H3.517v-14.854zm20.71 41.24l6.642 11.337c-12.113 7.687-18.17 18.111-18.17 31.272 0 7.948 1.433 14.268 4.298 18.959 2.866 4.821 7.034 7.232 12.504 7.232 2.345 0 4.429-.587 6.252-1.759 1.954-1.173 3.517-2.476 4.69-3.909 1.302-1.303 2.67-3.714 4.102-7.232 1.563-3.518 2.67-6.45 3.321-8.796.782-2.215 2.02-5.928 3.712-11.14 1.433-4.561 2.866-8.47 4.299-11.728 1.432-3.257 3.32-6.645 5.665-10.163 2.475-3.518 5.47-6.255 8.988-8.209 3.516-1.824 7.554-2.737 12.113-2.737 8.726 0 15.825 3.519 21.295 10.555 5.471 7.036 8.206 16.679 8.206 28.927 0 8.6-2.279 16.483-6.838 23.65-4.559 7.166-9.899 12.313-16.02 15.441l-6.643-10.164c4.558-2.736 8.466-6.711 11.722-11.923 3.386-5.081 5.08-10.75 5.08-17.004 0-7.948-1.563-14.007-4.69-18.177-2.995-4.039-7.098-6.059-12.308-6.059-2.995 0-5.73.782-8.205 2.345-2.345 1.564-4.429 3.909-6.252 7.037-1.694 3.257-3.061 6.189-4.103 8.795a1334.11 1334.11 0 0 0-3.517 10.75c-1.172 3.779-2.28 7.101-3.321 9.968-1.042 2.997-2.475 6.254-4.298 9.773-1.824 3.518-3.778 6.45-5.861 8.795-1.954 2.345-4.494 4.3-7.62 5.864C36.274 532.218 33.018 533 29.5 533c-8.336 0-15.369-3.714-21.1-11.141C2.801 514.562 0 504.464 0 491.564c0-9.382 2.084-17.721 6.252-25.018 4.298-7.297 10.29-13.16 17.974-17.591z" fill="#fff"/></svg>