<svg width="153" height="747" fill="none" xmlns="http://www.w3.org/2000/svg"><path d="M79.91 15.623v39.45c0 9.765 2.6 17.25 7.797 22.459 5.198 5.338 12.084 8.007 20.66 8.007 8.316 0 15.008-2.8 20.075-8.398 5.197-5.468 7.796-13.345 7.796-23.63V15.623H79.911zM3.509 0h145.984v57.026c0 14.321-3.898 25.323-11.695 33.005-7.666 7.681-17.151 11.522-28.456 11.522-10.265 0-18.58-2.604-24.947-7.812-6.367-5.208-10.395-10.936-12.084-17.186-2.859 5.468-6.367 9.44-10.525 11.913-4.158 2.474-9.94 4.492-17.347 6.054a3265.874 3265.874 0 0 0-15.007 3.516c-2.6.78-6.367 2.083-11.305 3.906a115.365 115.365 0 0 0-14.618 7.03V91.398c4.158-2.214 8.576-4.232 13.254-6.054 4.807-1.693 8.706-2.93 11.694-3.711 3.119-.781 8.056-1.953 14.813-3.515 7.276-1.693 12.993-4.297 17.151-7.812 4.158-3.385 6.237-8.853 6.237-16.405V15.623H3.508V0zm0 132.019h145.984v91.397h-13.254v-75.774H85.563v68.353H72.504v-68.353H16.762v77.337H3.508v-92.96zm54.573 138.659v55.073l49.116-17.186c2.989-1.042 7.732-2.734 14.228-5.078 6.627-2.213 11.24-3.776 13.839-4.687v-1.172c-15.982-5.468-25.338-8.658-28.067-9.569l-49.116-17.381zM3.508 233.962l145.984 54.683v19.139L3.508 362.466V345.28l42.1-14.842v-64.447l-42.1-14.843v-17.186zM30.99 367.544l5.067 14.451c-15.072 8.723-22.609 22.264-22.609 40.621 0 10.156 2.47 18.423 7.407 24.803 4.937 6.379 11.694 9.569 20.27 9.569 4.288 0 8.056-.911 11.304-2.734 3.379-1.823 6.302-4.752 8.771-8.788 2.469-3.906 4.418-7.551 5.847-10.937 1.43-3.385 3.119-8.007 5.068-13.865l3.313-9.96c.65-1.953 1.82-5.078 3.508-9.375 1.69-4.166 3.184-7.291 4.483-9.374 1.3-1.953 3.054-4.426 5.263-7.421 2.338-2.994 4.677-5.208 7.016-6.64 2.339-1.302 5.133-2.539 8.381-3.71 3.378-1.042 6.952-1.563 10.72-1.563 11.564 0 20.79 4.427 27.676 13.28 7.017 8.854 10.525 20.701 10.525 35.544 0 11.327-2.599 21.157-7.796 29.489-5.198 8.463-11.694 14.517-19.491 18.162l-4.677-13.28c12.474-7.681 18.711-19.269 18.711-34.762 0-10.155-2.274-18.097-6.822-23.826-4.548-5.728-10.59-8.593-18.126-8.593-3.379 0-6.562.781-9.551 2.344-2.858 1.562-5.197 3.255-7.016 5.077-1.69 1.953-3.573 5.013-5.652 9.179-1.95 4.297-3.379 7.617-4.288 9.96-.78 2.474-2.08 6.445-3.898 11.913-.39 1.302-.715 2.279-.975 2.93-2.079 6.379-4.093 11.717-6.042 16.014-1.949 4.296-4.548 8.723-7.796 13.28-3.249 4.557-7.212 7.942-11.89 10.155-4.547 2.344-9.874 3.515-15.981 3.515-13.124 0-23.389-4.622-30.795-13.866C3.638 450.023 0 437.719 0 422.226c0-13.28 2.794-24.542 8.38-33.786 5.588-9.244 13.124-16.209 22.61-20.896zm45.413 123.621c22.868 0 41.319 5.533 55.352 16.6C145.918 518.831 153 533.609 153 552.096c0 18.619-7.017 33.331-21.05 44.137-14.033 10.936-32.614 16.405-55.742 16.405-23.389 0-41.97-5.534-55.743-16.6C6.822 585.101 0 570.454 0 552.096c0-18.487 6.887-33.265 20.66-44.331 13.903-11.067 32.484-16.6 55.743-16.6zm0 16.014c-19.231 0-34.564 4.036-45.998 12.108-11.304 8.072-16.957 19.009-16.957 32.809 0 13.541 5.588 24.347 16.762 32.419 11.175 8.072 26.507 12.109 45.998 12.109 19.23 0 34.628-3.906 46.192-11.718 11.564-7.812 17.347-18.748 17.347-32.81 0-13.8-5.718-24.737-17.152-32.809-11.434-8.072-26.832-12.108-46.192-12.108zM3.508 643.104h145.984v17.967l-93.165 53.901-30.794 17.576v1.172c12.084-1.562 25.857-2.344 41.32-2.344h82.639V747H3.508v-17.967l93.75-54.097 30.015-17.381v-.781c-12.994 1.302-26.702 1.953-41.125 1.953H3.508v-15.623z" fill="#fff"/></svg>