<svg width="153" height="503" fill="none" xmlns="http://www.w3.org/2000/svg"><path d="M3.508 0h145.984v88.547h-13.254V15.603H83.614v65.532H70.555V15.603H3.508V0zm0 111.561h145.984v15.603H16.762v69.433H3.508v-85.036zm72.895 92.838c22.868 0 41.319 5.526 55.352 16.578C145.918 232.029 153 246.787 153 265.25c0 18.594-7.017 33.286-21.05 44.078-14.033 10.922-32.614 16.384-55.742 16.384-23.389 0-41.97-5.527-55.743-16.579C6.822 298.211 0 283.584 0 265.25c0-18.463 6.887-33.221 20.66-44.273 13.903-11.052 32.484-16.578 55.743-16.578zm0 15.993c-19.231 0-34.564 4.03-45.998 12.092-11.304 8.061-16.957 18.983-16.957 32.766 0 13.523 5.588 24.315 16.762 32.376 11.175 8.062 26.507 12.093 45.998 12.093 19.23 0 34.628-3.901 46.192-11.703 11.564-7.801 17.347-18.723 17.347-32.766 0-13.783-5.718-24.705-17.152-32.766-11.434-8.062-26.832-12.092-46.192-12.092zm73.089 117.607v17.163L50.87 375.836c-13.903 2.47-23.843 4.161-29.82 5.071v1.17c15.592 3.251 25.532 5.331 29.82 6.241l98.622 23.6v16.773l-98.622 23.99c-8.186 1.82-18.126 3.9-29.82 6.241v.78c1.299.13 11.24 1.885 29.82 5.266l98.622 20.869V503L3.508 468.674V450.34l97.453-23.599c17.021-3.511 26.571-5.461 28.65-5.852v-.78c-3.508-.65-8.705-1.755-15.592-3.315-6.887-1.561-11.239-2.536-13.058-2.926L3.508 390.659v-18.334l145.984-34.326z" fill="#fff"/></svg>