<svg width="146" height="703" fill="none" xmlns="http://www.w3.org/2000/svg"><path d="M0 0h146v91.365h-13.255V15.618h-50.68v68.328H69.003V15.618H13.255v77.308H0V0zm0 100.345l75.047 48.025L146 102.688v19.522l-35.282 21.475c-2.989 1.822-7.407 4.425-13.255 7.808-5.847 3.514-9.356 5.597-10.526 6.248v.781c2.99 1.691 7.148 4.164 12.476 7.418a3845.57 3845.57 0 0 1 11.305 7.028L146 194.443v19.522l-70.953-46.073L0 216.308v-19.132l36.646-23.037a5369.7 5369.7 0 0 1 13.84-8.394c6.368-3.775 10.396-6.182 12.085-7.223v-.781a1153.412 1153.412 0 0 1-25.925-15.423L0 119.477v-19.132zm0 135.68h146v55.053c0 14.187-3.899 25.379-11.696 33.579-7.797 8.329-18.128 12.494-30.993 12.494-13.255 0-23.716-4.23-31.383-12.689-7.667-8.46-11.5-19.588-11.5-33.384v-39.435H0v-15.618zm73.487 15.618v37.093c0 10.281 2.47 18.22 7.407 23.817 5.069 5.726 12.54 8.59 22.417 8.59 9.616 0 16.894-2.864 21.832-8.59 5.068-5.597 7.602-13.666 7.602-24.208v-36.702H73.487zM0 365.263h146v91.365h-13.255v-75.747h-50.68v68.328H69.003v-68.328H13.255v77.309H0v-92.927zM76.411 501.92v39.435c0 9.761 2.6 17.245 7.797 22.451 5.198 5.336 12.086 8.004 20.662 8.004 8.317 0 15.01-2.798 20.078-8.395 5.198-5.466 7.797-13.34 7.797-23.622V501.92H76.411zM0 486.302h146v57.005c0 14.317-3.899 25.314-11.696 32.993-7.667 7.679-17.153 11.518-28.459 11.518-10.266 0-18.583-2.603-24.95-7.809-6.368-5.206-10.397-10.932-12.086-17.18-2.859 5.467-6.367 9.436-10.526 11.909-4.158 2.473-9.941 4.49-17.348 6.052a3235.514 3235.514 0 0 0-15.01 3.514c-2.599.781-6.367 2.082-11.306 3.905A115.369 115.369 0 0 0 0 595.237v-17.57c4.158-2.213 8.577-4.23 13.255-6.052 4.808-1.692 8.707-2.929 11.696-3.71 3.118-.781 8.057-1.952 14.814-3.514 7.277-1.692 12.995-4.295 17.154-7.809 4.158-3.384 6.237-8.85 6.237-16.398V501.92H0v-15.618zM132.745 598.36H146V703h-13.255v-44.511H0v-15.618h132.745V598.36z" fill="#fff"/></svg>